<?xml version="1.0" encoding="UTF-8"?>
<svg id="Calque_2" data-name="Calque 2" xmlns="http://www.w3.org/2000/svg" viewBox="0 0 1188.26 1188.7">
  <defs>
    <style>
      .cls-1 {
        fill: #1d1d1b;
      }
    </style>
  </defs>
  <g id="Calque_1-2" data-name="Calque 1">
    <path class="cls-1" d="m631.23,1188.7h-74.27c-2.94-.68-5.85-1.77-8.82-1.98-53.14-3.75-104.72-15.02-154.75-33.05C99.55,1047.78-61.88,734.45,22.2,433.52,126.45,60.39,555.28-114.6,891.82,80.82c158.63,92.11,253.96,231.51,287.49,412.34,3.93,21.21,6.01,42.76,8.95,64.15v71.96c-.67,3.72-1.46,7.42-1.98,11.17-3.22,23.33-5.27,46.88-9.74,69.97-46.24,239.24-239.84,428.31-480.16,469.19-21.61,3.68-43.43,6.11-65.16,9.12Zm2.48-668.26c0-28.47-.82-55.15.25-81.76.94-23.46,14.52-37.1,37.94-39.11,16.91-1.45,33.98-.95,50.98-1.47,13.17-.4,18.52-5.31,18.74-18.31.35-21.27.33-42.55,0-63.82-.2-13.04-5.74-18.53-18.44-18.6-24.36-.14-48.75-.54-73.08.28-63.71,2.15-109.73,39.52-121.52,102.06-5.03,26.67-3.5,54.6-4.58,81.97-.5,12.63-.08,25.3-.08,39.05-19.6,0-37.7-.01-55.81,0-20.89.02-24.76,3.97-24.77,25.27,0,20.89,0,41.77,0,62.66,0,22.91,3.1,26.01,26.09,26.02,18.05,0,36.09,0,54.86,0,0,5.94,0,10.16,0,14.37-.12,75.04-.26,150.07-.34,225.11-.02,15.06,2.39,17.37,17.62,17.4,24.36.05,48.73.03,73.09,0,15.96-.02,18.67-2.75,18.67-18.99.02-74.65,0-149.3,0-223.95v-13.94c5.22,0,9.37,0,13.51,0,22.43,0,44.86.08,67.29-.03,15.28-.08,19.77-4.42,21.47-19.59,2.54-22.66,5.04-45.33,7.96-67.94,2.71-20.99-1.98-26.65-23.21-26.66-28.53-.02-57.07,0-86.64,0Z"/>
  </g>
</svg>