<?xml version="1.0" encoding="UTF-8"?>
<svg id="Calque_2" data-name="Calque 2" xmlns="http://www.w3.org/2000/svg" viewBox="0 0 1187.77 1188.38">
  <defs>
    <style>
      .cls-1 {
        fill: #1d1d1b;
      }
    </style>
  </defs>
  <g id="Calque_1-2" data-name="Calque 1">
    <g>
      <path class="cls-1" d="m1187.77,556.97v74.28c-.95,7.62-2.02,15.22-2.85,22.85-12.72,117.54-55.3,222.98-130.31,314.4-93.27,113.69-212.6,184.28-357.53,210.66-21.94,3.99-44.22,6.18-66.34,9.21h-74.27c-2.97-.66-5.91-1.68-8.91-1.92-129.76-10.56-245-57.18-342.36-143.52C52.81,907.8-14.94,737.08,2.75,534.39c11.05-126.61,60.77-238.38,145.61-333.13C264.23,71.86,409.88,4.42,583.63.19c112.41-2.74,217.87,24.75,313.8,83.55,153.66,94.19,248.08,230.25,281.21,407.94,4.02,21.58,6.13,43.52,9.13,65.29ZM593.94,251.08c-56.4,2.13-113.81,1.76-170.67,7.1-67.65,6.36-119.33,40.17-149,103.15-13.02,27.63-18.91,57.35-19.35,87.72-1.17,80.06-1.9,160.13-1.95,240.2-.02,25.09,1.78,50.27,4.28,75.25,8.64,86.36,67.86,151.22,153.43,163.44,42.65,6.09,86.31,6.88,129.51,6.87,74.21-.02,148.62.35,222.57-4.86,68.23-4.8,120.12-39.82,150.13-103.13,13.1-27.63,18.95-57.35,19.41-87.7,1.21-80.06,1.89-160.13,1.96-240.2.02-24.7-1.74-49.49-4.18-74.09-9.16-92.28-75.01-159.23-167.24-166.91-55.8-4.65-111.98-4.68-168.88-6.83Z"/>
      <path class="cls-1" d="m592.78,313.33c52.1,1.46,103.56,1.59,154.85,4.66,73.03,4.38,119.67,48.98,121.65,122.03,2.78,102.74,2.74,205.67-.01,308.41-1.93,72.23-48.95,119.46-120.81,121.36-103.11,2.73-206.39,2.74-309.5.01-72.08-1.91-119.09-48.89-121-121.07-2.74-103.52-2.67-207.21.09-310.73,1.88-70.45,49.4-115.71,120.09-119.92,51.68-3.08,103.53-3.28,154.64-4.75Zm.72,455.88c96.61.09,174.62-77.58,175.18-174.43.56-96.94-77.84-175.7-174.98-175.78-96.65-.08-174.66,77.57-175.2,174.4-.54,96.9,77.9,175.71,174.99,175.8Zm141.5-358.14c-.34,22.68,16.99,41.04,39.27,41.61,23.14.59,41.86-17.08,42.24-39.87.38-23-17.64-41.53-40.5-41.65-22.55-.12-40.67,17.52-41.01,39.91Z"/>
      <path class="cls-1" d="m707.29,594.52c-.18,62.51-51.25,113.36-113.8,113.3-62.95-.05-113.99-51.61-113.57-114.7.42-62.38,51.82-113.04,114.39-112.72,62.47.31,113.16,51.51,112.98,114.11Z"/>
    </g>
  </g>
</svg>