<?xml version="1.0" encoding="UTF-8"?>
<svg id="Calque_2" data-name="Calque 2" xmlns="http://www.w3.org/2000/svg" viewBox="0 0 1185.48 1185.48">
  <defs>
    <style>
      .cls-1 {
        fill: #1d1d1b;
      }
    </style>
  </defs>
  <g id="Calque_1-2" data-name="Calque 1">
    <path class="cls-1" d="m592.5,0c327.2-.21,593.05,265.56,592.97,592.82-.08,327.26-266.08,593.04-593.16,592.66C265.49,1185.09.48,920.14,0,593.29-.48,266.26,265.21.21,592.5,0Zm120.12,264.39h-105.42v17.91c0,140.5.01,280.99-.03,421.49,0,7.46-.1,14.94-.7,22.37-4.27,52.75-49.55,92.48-102.82,90.37-52.24-2.07-95.01-46.98-94.64-99.39.37-52.82,42.98-96.68,95.59-98.2,11.73-.34,23.48-.05,35.81-.05v-106.62c-22.46,1.29-44.07.92-65.18,4.02-110.67,16.25-189.03,126.25-168.65,235.64,21.44,115.03,130.95,190,242.38,165.92,98.03-21.19,162.92-101.97,163.56-204.54.46-72.44.09-144.89.14-217.33,0-4.89.45-9.78.77-16.39,51.98,34.61,106.36,53.62,167.02,55.42v-104.87c-102.55-8.38-157.63-64.94-167.83-165.74Z"/>
  </g>
</svg>